Coordinates
version=1
nRows=16
nColumns=40
inDegrees=yes
endheader
time	pelvis_tilt	pelvis_list	pelvis_rotation	pelvis_tx	pelvis_ty	pelvis_tz	hip_flexion_r	hip_adduction_r	hip_rotation_r	knee_angle_r	knee_angle_r_beta	ankle_angle_r	subtalar_angle_r	mtp_angle_r	hip_flexion_l	hip_adduction_l	hip_rotation_l	knee_angle_l	knee_angle_l_beta	ankle_angle_l	subtalar_angle_l	mtp_angle_l	lumbar_extension	lumbar_bending	lumbar_rotation	arm_flex_r	arm_add_r	arm_rot_r	elbow_flex_r	pro_sup_r	wrist_flex_r	wrist_dev_r	arm_flex_l	arm_add_l	arm_rot_l	elbow_flex_l	pro_sup_l	wrist_flex_l	wrist_dev_l
1760624915.70000005	      0.12069780	     -0.01354487	     -0.07961108	     -0.03253344	      0.93222260	      0.00034793	     80.00000000	     -7.00000000	      0.00000000	     80.00000000	      1.39626340	      0.00000000	      0.00000000	      0.00000000	     80.00000000	     -7.00000000	      0.00000000	     80.00000000	      1.39626340	      0.00000000	      0.00000000	      0.00000000	     -3.09804041	     -0.99454593	     -0.59775159	      7.01828229	     -9.29294292	     -0.00374131	     14.81500893	      0.23200187	    -18.22509363	      7.05739791	      2.45396029	     -2.24646209	     -0.79282477	      0.99467512	      0.15912139	     -0.32698606	      0.91428677
1760624915.73399997	      0.12278599	     -0.01166493	     -0.07627979	     -0.03343623	      0.93400484	      0.00035781	     80.00000000	     -7.00000000	      0.00000000	     80.00000000	      1.39626340	      0.00000000	      0.00000000	      0.00000000	     80.00000000	     -7.00000000	      0.00000000	     80.00000000	      1.39626340	      0.00000000	      0.00000000	      0.00000000	     -2.74842717	     -1.11593994	     -0.44940946	      6.58416752	     -9.35887188	     -0.20046043	     15.68863806	      0.26197142	    -18.98642941	      7.02083020	      2.21732242	     -2.31730533	     -0.55619297	      0.87660594	      0.07511081	     -0.33155088	      0.92700390
1760624915.76699996	      0.11654441	     -0.01664779	     -0.06764689	     -0.03471313	      0.93572304	      0.00063370	     80.00000000	     -7.00000000	      0.00000000	     80.00000000	      1.39626340	      0.00000000	      0.00000000	      0.00000000	     80.00000000	     -7.00000000	      0.00000000	     80.00000000	      1.39626340	      0.00000000	      0.00000000	      0.00000000	     -2.56601537	     -1.26775215	     -0.37813329	      6.40561169	     -9.42020861	     -0.20520302	     16.18326899	      0.33350048	    -19.42729821	      7.13553638	      2.12930088	     -2.44074022	     -0.49567808	      0.78228402	      0.12211359	     -0.34568506	      0.90535729
1760624915.79999995	      0.10897663	     -0.01046803	     -0.05174406	     -0.03459866	      0.93574681	      0.00100361	     80.00000000	     -7.00000000	      0.00000000	     80.00000000	      1.39626340	      0.00000000	      0.00000000	      0.00000000	     80.00000000	     -7.00000000	      0.00000000	     80.00000000	      1.39626340	      0.00000000	      0.00000000	      0.00000000	     -2.54991510	     -1.29146117	     -0.40351058	      6.39316012	     -9.38433929	     -0.10306888	     16.18859488	      0.29322427	    -19.39050995	      7.09756064	      2.14804360	     -2.44281958	     -0.42019625	      0.74161134	      0.09628584	     -0.34650097	      0.89734736
1760624915.83400011	      0.10681310	     -0.00893591	     -0.03158972	     -0.03441616	      0.93610250	      0.00116590	     80.00000000	     -7.00000000	      0.00000000	     80.00000000	      1.39626340	      0.00000000	      0.00000000	      0.00000000	     80.00000000	     -7.00000000	      0.00000000	     80.00000000	      1.39626340	      0.00000000	      0.00000000	      0.00000000	     -2.52808344	     -1.31788818	     -0.42557098	      6.37595486	     -9.48887705	     -0.01186625	     16.18951758	      0.30021547	    -19.38400641	      7.21323838	      2.17696613	     -2.44751390	     -0.39624074	      0.72302916	      0.03935697	     -0.34340745	      0.92875947
1760624915.86700010	      0.09638549	     -0.01195973	     -0.01933337	     -0.03424233	      0.93624388	      0.00102500	     80.00000000	     -7.00000000	      0.00000000	     80.00000000	      1.39626340	      0.00000000	      0.00000000	      0.00000000	     80.00000000	     -7.00000000	      0.00000000	     80.00000000	      1.39626340	      0.00000000	      0.00000000	      0.00000000	     -2.53316746	     -1.27648259	     -0.37954628	      6.45922121	     -9.61921453	      0.21912666	     16.20253098	      0.23068799	    -19.47223423	      7.25056247	      2.21761160	     -2.38687785	     -0.36103382	      0.71895178	      0.00000000	     -0.35530866	      0.92976141
1760624915.90100002	      0.10214751	     -0.00390533	     -0.01312180	     -0.03414493	      0.93653459	      0.00093979	     80.00000000	     -7.00000000	      0.00000000	     80.00000000	      1.39626340	      0.00000000	      0.00000000	      0.00000000	     80.00000000	     -7.00000000	      0.00000000	     80.00000000	      1.39626340	      0.00000000	      0.00000000	      0.00000000	     -2.50254923	     -1.26081931	     -0.34163297	      6.47009750	     -9.70851312	      0.27210295	     16.19836165	      0.24695003	    -19.53097521	      7.30412166	      2.20105953	     -2.34920845	     -0.33670582	      0.70155618	      0.00000000	     -0.34958476	      0.93903282
1760624915.93400002	      0.08800157	     -0.02427054	     -0.00393787	     -0.03351711	      0.93687264	      0.00052075	     80.00000000	     -7.00000000	      0.00000000	     80.00000000	      1.39626340	      0.00000000	      0.00000000	      0.00000000	     80.00000000	     -7.00000000	      0.00000000	     80.00000000	      1.39626340	      0.00000000	      0.00000000	      0.00000000	     -2.38935727	     -1.29978408	     -0.36956940	      6.31155023	     -9.77788796	      0.37606103	     16.54292795	      0.23532210	    -19.79203089	      7.31894105	      2.10605537	     -2.39262180	     -0.37907236	      0.70453655	      0.00000000	     -0.34302905	      0.94796709
1760624915.96799994	      0.08457390	     -0.03393303	     -0.01045159	     -0.03337020	      0.93760434	      0.00095569	     80.00000000	     -7.00000000	      0.00000000	     80.00000000	      1.39626340	      0.00000000	      0.00000000	      0.00000000	     80.00000000	     -7.00000000	      0.00000000	     80.00000000	      1.39626340	      0.00000000	      0.00000000	      0.00000000	     -2.22034982	     -1.40506940	     -0.38964722	      6.03057557	     -9.73281739	      0.56656026	     16.81926462	      0.15721245	    -19.93826847	      7.27143943	      1.97730977	     -2.47542815	     -0.42699774	      0.65823226	      0.00000000	     -0.35331932	      0.92355214
1760624916.00099993	      0.09229612	     -0.03710953	     -0.00081397	     -0.03297614	      0.93797429	      0.00099078	     80.00000000	     -7.00000000	      0.00000000	     80.00000000	      1.39626340	      0.00000000	      0.00000000	      0.00000000	     80.00000000	     -7.00000000	      0.00000000	     80.00000000	      1.39626340	      0.00000000	      0.00000000	      0.00000000	     -2.23288400	     -1.45833204	     -0.41976731	      5.91549815	     -9.75567274	      0.44017361	     17.28308495	      0.25150727	    -20.27758859	      7.28354005	      1.97685333	     -2.51570671	     -0.48249079	      0.66731174	      0.00000000	     -0.35567741	      0.91227123
1760624916.03500009	      0.08001338	     -0.04439005	     -0.00802659	     -0.03257563	      0.93831811	      0.00105307	     80.00000000	     -7.00000000	      0.00000000	     80.00000000	      1.39626340	      0.00000000	      0.00000000	      0.00000000	     80.00000000	     -7.00000000	      0.00000000	     80.00000000	      1.39626340	      0.00000000	      0.00000000	      0.00000000	     -2.22081869	     -1.48870466	     -0.42578981	      5.91997973	     -9.78684962	      0.48647966	     17.31000404	      0.29420931	    -20.32982148	      7.33503077	      1.98381289	     -2.53194359	     -0.51166016	      0.63192394	      0.00000000	     -0.35091448	      0.90498896
1760624916.06800008	      0.07383748	     -0.04295245	      0.01428611	     -0.03209313	      0.93825059	      0.00064384	     80.00000000	     -7.00000000	      0.00000000	     80.00000000	      1.39626340	      0.00000000	      0.00000000	      0.00000000	     80.00000000	     -7.00000000	      0.00000000	     80.00000000	      1.39626340	      0.00000000	      0.00000000	      0.00000000	     -2.22767017	     -1.46205930	     -0.46200328	      5.92252214	     -9.88322564	      0.56085089	     17.41068137	      0.23746616	    -20.41872832	      7.34890003	      1.98383643	     -2.49771953	     -0.55107657	      0.61237337	      0.00000000	     -0.35575083	      0.89664336
1760624916.10200000	      0.07178049	     -0.04523166	      0.02536489	     -0.03134218	      0.93787939	      0.00064421	     80.00000000	     -7.00000000	      0.00000000	     80.00000000	      1.39626340	      0.00000000	      0.00000000	      0.00000000	     80.00000000	     -7.00000000	      0.00000000	     80.00000000	      1.39626340	      0.00000000	      0.00000000	      0.00000000	     -2.24736335	     -1.48403832	     -0.46191044	      5.90596111	     -9.88863223	      0.56742312	     17.45032856	      0.26511778	    -20.40745282	      7.36185010	      1.99451872	     -2.50707720	     -0.58455909	      0.60733258	      0.00000000	     -0.37537148	      0.87288379
1760624916.13499999	      0.06248256	     -0.03996358	      0.05037524	     -0.03080762	      0.93765832	      0.00068533	     80.00000000	     -7.00000000	      0.00000000	     80.00000000	      1.39626340	      0.00000000	      0.00000000	      0.00000000	     80.00000000	     -7.00000000	      0.00000000	     80.00000000	      1.39626340	      0.00000000	      0.00000000	      0.00000000	     -2.28612952	     -1.49667111	     -0.46766677	      5.97546986	     -9.96168285	      0.68413780	     17.44928642	      0.24620233	    -20.50406434	      7.40728689	      2.05192414	     -2.51209955	     -0.56804570	      0.55803226	      0.00000000	     -0.37184501	      0.88181937
1760624916.16799998	      0.06908631	     -0.05175217	      0.05942601	     -0.03003948	      0.93790319	      0.00116780	     80.00000000	     -7.00000000	      0.00000000	     80.00000000	      1.39626340	      0.00000000	      0.00000000	      0.00000000	     80.00000000	     -7.00000000	      0.00000000	     80.00000000	      1.39626340	      0.00000000	      0.00000000	      0.00000000	     -2.29024621	     -1.52078815	     -0.46479131	      5.90805775	     -9.95148248	      0.74809834	     17.46123911	      0.26067837	    -20.46392835	      7.41555703	      2.04590719	     -2.54173756	     -0.57778302	      0.54090246	      0.00000000	     -0.35147149	      0.87853403
1760624916.20199990	      0.05970786	     -0.05191920	      0.07173869	     -0.02993903	      0.93823347	      0.00094563	     80.00000000	     -7.00000000	      0.00000000	     80.00000000	      1.39626340	      0.00000000	      0.00000000	      0.00000000	     80.00000000	     -7.00000000	      0.00000000	     80.00000000	      1.39626340	      0.00000000	      0.00000000	      0.00000000	     -2.18085101	     -1.51955109	     -0.45254148	      5.71823599	     -9.97645728	      0.80444266	     17.41032785	      0.23726505	    -20.28140575	      7.43267936	      1.91194801	     -2.54831449	     -0.54673847	      0.56027852	      0.00000000	     -0.34435568	      0.86564261
